<?xml version="1.0" encoding="UTF-8"?>
<svg width="1200pt" height="1200pt" version="1.1" viewBox="0 0 1200 1200" xmlns="http://www.w3.org/2000/svg">
    <rect x="30" y="250" width="1140" height="750" fill="none" stroke="lightgray" stroke-width="40"/>
    <defs>
        <path id="checkmark" transform="scale(0.5)" fill="lightgray"
              d="m841.36 395.7c-13.75 0.42188-26.793 6.1836-36.367 16.059l-268.99 268.99-144.53-114.3h0.003906c-10.934-9.3125-25.18-13.785-39.469-12.387-14.293 1.4023-27.402 8.5508-36.316 19.809-8.918 11.254-12.875 25.652-10.965 39.887 1.9102 14.23 9.5273 27.074 21.094 35.582l181.37 143.59c10.16 8.0312 22.906 12.055 35.836 11.316 12.926-0.73828 25.133-6.1953 34.305-15.332l302.29-302.29c10.289-9.9414 16.109-23.629 16.137-37.934 0.027344-14.309-5.7422-28.016-15.988-38-10.25-9.9805-24.105-15.391-38.406-14.988z"/>
        <path id="cross" transform="scale(0.2)" fill="lightgray"
              d="m0 188.06 188.06-188.06 411.94 411.94 411.94-411.94 188.06 188.06-420.89 411.94 420.89 411.94-188.06 188.06-411.94-420.89-411.94 420.89-188.06-188.06 411.94-411.94z" fill-rule="evenodd"/>
    </defs>
    <use href="#checkmark" x="0" y="150"/>
    <use href="#cross" x="500" y="340"/>
    <use href="#checkmark" x="650" y="150"/>
    <use href="#cross" x="160" y="640"/>
    <use href="#cross" x="500" y="640"/>
    <use href="#checkmark" x="650" y="450"/>
</svg>
